<svg fill="none" height="512" viewBox="0 0 24 24" width="512" xmlns="http://www.w3.org/2000/svg"><path clip-rule="evenodd" d="m6.7072 22.707 12.4488-12.4522c.0175-.0152.0345-.0311.0511-.0477.0167-.0167.0326-.0338.0479-.0513l2.8621-2.86296c1.1716-1.17157 1.1716-3.07106 0-4.24263l-1.1716-1.17158c-1.1715-1.171572-3.0711-1.171474-4.2427.0001l-15.41 15.41417c-.18748.1876-.2928.4419-.2928.707v4.0001c0 .5522.44772 1 1 1h4c.26526 0 .51966-.1054.7072-.293zm12.8241-19.41416c-.3905-.39052-1.0237-.39052-1.4142.00001l-2.2047 2.2053 2.5858 2.58579 2.2047-2.20531c.3905-.39052.3905-1.02369 0-1.41421zm-16.5313 15.12126 11.4984-11.50154 2.5858 2.58578-11.49849 11.50166h-2.58571zm8 2.5859c-.5523 0-1 .4477-1 1s.4477 1 1 1h9c.5523 0 1-.4477 1-1s-.4477-1-1-1z" fill="rgb(0,0,0)" fill-rule="evenodd"/></svg>